# xmcd CD database file
#
# Track frame offsets:
#	150
#	23662
#	45812
#
# Disc length: 922 seconds
#
# Revision: 0
# Processed by: cddbd v1.5.1PL0 Copyright (c) Steve Scherf et al.
# Submitted via: CDex 1.51
#
DISCID=12039803
DTITLE=Bluem of Youth - GARDEN
DYEAR=1998
DGENRE=J-POP
TTITLE0=GARDEN
TTITLE1=君と僕と約束
TTITLE2=GARDEN(inst)
EXTD=YEAR: 1998
EXTT0=
EXTT1=
EXTT2=
PLAYORDER=
